<svg width="14" height="14" viewBox="0 0 14 14" fill="none" xmlns="http://www.w3.org/2000/svg">
<path d="M4.21929 9.78068C2.78556 8.34417 1.68297 6.61178 0.988625 4.70468C0.606625 3.66202 0.956625 2.51668 1.74196 1.73135L2.22796 1.24602C2.35862 1.11509 2.51381 1.01123 2.68466 0.940356C2.85551 0.869487 3.03866 0.833008 3.22363 0.833008C3.40859 0.833008 3.59174 0.869487 3.76259 0.940356C3.93344 1.01123 4.08863 1.11509 4.21929 1.24602L5.35729 2.38402C5.48821 2.51467 5.59208 2.66987 5.66295 2.84072C5.73382 3.01157 5.7703 3.19472 5.7703 3.37968C5.7703 3.56465 5.73382 3.7478 5.66295 3.91865C5.59208 4.08949 5.48821 4.24469 5.35729 4.37535L5.07729 4.65535C4.96522 4.7674 4.87631 4.90043 4.81565 5.04685C4.755 5.19327 4.72378 5.3502 4.72378 5.50868C4.72378 5.66717 4.755 5.8241 4.81565 5.97051C4.87631 6.11693 4.96522 6.24996 5.07729 6.36202L7.63729 8.92268C7.74935 9.03476 7.88238 9.12366 8.02879 9.18432C8.17521 9.24498 8.33214 9.2762 8.49063 9.2762C8.64911 9.2762 8.80604 9.24498 8.95246 9.18432C9.09887 9.12366 9.23191 9.03476 9.34396 8.92268L9.62463 8.64268C9.75528 8.51176 9.91048 8.40789 10.0813 8.33702C10.2522 8.26615 10.4353 8.22967 10.6203 8.22967C10.8053 8.22967 10.9884 8.26615 11.1593 8.33702C11.3301 8.40789 11.4853 8.51176 11.616 8.64268L12.754 9.78068C12.8849 9.91134 12.9887 10.0665 13.0596 10.2374C13.1305 10.4082 13.167 10.5914 13.167 10.7763C13.167 10.9613 13.1305 11.1445 13.0596 11.3153C12.9887 11.4862 12.8849 11.6414 12.754 11.772L12.2686 12.2573C11.4833 13.0433 10.338 13.3933 9.29529 13.0113C7.38819 12.317 5.6558 11.2144 4.21929 9.78068Z" stroke="white" stroke-width="1.5" stroke-linejoin="round"/>
</svg>
